***********************************************************************************
****************************Hillary Duff So yesterday******************************
***********************************************************************************

General
Complete name                            : Hillary Duff So yesterday.mp4
Format                                   : MPEG-4
Format profile                           : Base Media / Version 2
Codec ID                                 : mp42
File size                                : 156 MiB
Duration                                 : 3mn 33s
Overall bit rate                         : 6 129 Kbps
Encoded date                             : UTC 2007-11-01 15:41:17
Tagged date                              : UTC 2007-11-01 16:05:03

Video
ID                                       : 1
Format                                   : AVC
Format/Info                              : Advanced Video Codec
Format profile                           : Baseline@L4.0
Format settings, CABAC                   : No
Format settings, ReFrames                : 1 frame
Codec ID                                 : avc1
Codec ID/Info                            : Advanced Video Coding
Duration                                 : 3mn 33s
Bit rate mode                            : Variable
Bit rate                                 : 5 999 Kbps
Width                                    : 1 360 pixels
Height                                   : 768 pixels
Display aspect ratio                     : 16:9
Frame rate mode                          : Constant
Frame rate                               : 25.000 fps
Color space                              : YUV
Chroma subsampling                       : 4:2:0
Bit depth                                : 8 bits
Scan type                                : Progressive
Bits/(Pixel*Frame)                       : 0.230
Stream size                              : 153 MiB (98%)
Language                                 : English
Encoded date                             : UTC 2007-11-01 15:41:17
Tagged date                              : UTC 2007-11-01 16:05:02

Audio
ID                                       : 2
Format                                   : AAC
Format/Info                              : Advanced Audio Codec
Format profile                           : LC
Codec ID                                 : 40
Duration                                 : 3mn 33s
Source duration                          : 3mn 33s
Bit rate mode                            : Variable
Bit rate                                 : 127 Kbps
Maximum bit rate                         : 228 Kbps
Channel(s)                               : 2 channels
Channel positions                        : Front: L R
Sampling rate                            : 44.1 KHz
Compression mode                         : Lossy
Stream size                              : 3.24 MiB (2%)
Source stream size                       : 3.24 MiB (2%)
Language                                 : English
Encoded date                             : UTC 2007-11-01 15:41:17
Tagged date                              : UTC 2007-11-01 16:05:02
